<?xml version="1.0" encoding="iso-8859-1"?>
<!-- Generator: Adobe Illustrator 19.0.0, SVG Export Plug-In . SVG Version: 6.00 Build 0)  -->
<svg version="1.1" id="Capa_1" xmlns="http://www.w3.org/2000/svg" xmlns:xlink="http://www.w3.org/1999/xlink" x="0px" y="0px"
	 viewBox="0 0 512.002 512.002" style="enable-background:new 0 0 512.002 512.002;" xml:space="preserve">
<g>
	<g>
		<path d="M479.502,155.999H140c-0.001-38.597-31.402-69.998-70-69.998S0,117.404,0,156.001v260c0,5.523,4.477,10,10,10h120
			c5.523,0,10-4.477,10-10V220.999h339.502c17.92,0,32.5-14.58,32.5-32.5C512.002,170.579,497.422,155.999,479.502,155.999z
			 M120,166.001v35H82.374c-5.523,0-10,4.477-10,10c0,5.523,4.477,10,10,10H120v185.002H20v-0.001v-22.11h37.626
			c5.523,0,10-4.477,10-10s-4.477-10-10-10H20v-207.89c0-27.57,22.43-49.999,50-49.999s50,22.43,50,49.999V166.001z
			 M155.858,200.999H140v-25h40.858L155.858,200.999z M235.859,200.999h-51.715l25-25h51.715L235.859,200.999z M315.859,200.999
			h-51.715l25-25h51.715L315.859,200.999z M395.859,200.999h-51.715l25-25h51.715L395.859,200.999z M479.502,200.999h-55.358l25-25
			h30.358c6.893,0,12.5,5.607,12.5,12.5S486.395,200.999,479.502,200.999z"/>
	</g>
</g>
<g>
	<g>
		<path d="M70,126.001c-16.542,0-30,13.458-30,30s13.458,30.001,30,30.001c16.542-0.001,30.001-13.459,30.001-30.001
			S86.542,126.001,70,126.001z M70,166.001c-5.514,0-10-4.486-10-10.001c0-5.514,4.486-10,10-10c5.515,0,10.001,4.486,10.001,10
			C80.001,161.516,75.515,166.001,70,166.001z"/>
	</g>
</g>
<g>
	<g>
		<path d="M51.657,201.003h-0.256c-5.523,0-10,4.477-10,10s4.477,10,10,10h0.256c5.523,0,10-4.477,10-10
			S57.18,201.003,51.657,201.003z"/>
	</g>
</g>
<g>
	<g>
		<path d="M88.599,363.894h-0.256c-5.523,0-10,4.477-10,10s4.477,10,10,10h0.256c5.523,0,10-4.477,10-10
			S94.122,363.894,88.599,363.894z"/>
	</g>
</g>
<g>
</g>
<g>
</g>
<g>
</g>
<g>
</g>
<g>
</g>
<g>
</g>
<g>
</g>
<g>
</g>
<g>
</g>
<g>
</g>
<g>
</g>
<g>
</g>
<g>
</g>
<g>
</g>
<g>
</g>
</svg>
